<mxfile host="app.diagrams.net" modified="2021-05-13T12:37:03.364Z" agent="5.0 (Macintosh; Intel Mac OS X 10_15_7) AppleWebKit/537.36 (KHTML, like Gecko) Chrome/90.0.4430.93 Safari/537.36" etag="I5a-WdLwLr1Q7fQFy-Fh" version="14.5.1" type="github">
  <diagram id="D9ysAEsHncap3S0onDD4" name="Page-1">
    <mxGraphModel dx="2893" dy="3366" grid="1" gridSize="10" guides="1" tooltips="1" connect="1" arrows="1" fold="1" page="1" pageScale="1" pageWidth="827" pageHeight="1169" math="0" shadow="0">
      <root>
        <mxCell id="0" />
        <mxCell id="1" parent="0" />
        <mxCell id="XsbEUv3BxgWwNWDP3BoW-1" value="" style="ellipse;whiteSpace=wrap;html=1;" vertex="1" parent="1">
          <mxGeometry x="-240" y="-780" width="120" height="80" as="geometry" />
        </mxCell>
        <mxCell id="XsbEUv3BxgWwNWDP3BoW-2" value="" style="shape=parallelogram;perimeter=parallelogramPerimeter;whiteSpace=wrap;html=1;fixedSize=1;" vertex="1" parent="1">
          <mxGeometry x="200" y="-740" width="120" height="60" as="geometry" />
        </mxCell>
        <mxCell id="XsbEUv3BxgWwNWDP3BoW-3" value="Activity" style="rounded=1;whiteSpace=wrap;html=1;arcSize=40;fontColor=#000000;fillColor=#ffffc0;strokeColor=#ff0000;" vertex="1" parent="1">
          <mxGeometry x="-380" y="-460" width="120" height="40" as="geometry" />
        </mxCell>
        <mxCell id="XsbEUv3BxgWwNWDP3BoW-4" value="" style="edgeStyle=orthogonalEdgeStyle;html=1;verticalAlign=bottom;endArrow=open;endSize=8;strokeColor=#ff0000;" edge="1" source="XsbEUv3BxgWwNWDP3BoW-3" parent="1">
          <mxGeometry relative="1" as="geometry">
            <mxPoint x="-320" y="-360" as="targetPoint" />
          </mxGeometry>
        </mxCell>
        <mxCell id="XsbEUv3BxgWwNWDP3BoW-5" value="Composite State" style="swimlane;html=1;fontStyle=1;align=center;verticalAlign=middle;childLayout=stackLayout;horizontal=1;startSize=30;horizontalStack=0;resizeParent=0;resizeLast=1;container=0;fontColor=#000000;collapsible=0;rounded=1;arcSize=30;strokeColor=#ff0000;fillColor=#ffffc0;swimlaneFillColor=#ffffc0;dropTarget=0;" vertex="1" parent="1">
          <mxGeometry x="-110" y="-430" width="160" height="60" as="geometry" />
        </mxCell>
        <mxCell id="XsbEUv3BxgWwNWDP3BoW-6" value="Subtitle" style="text;html=1;strokeColor=none;fillColor=none;align=center;verticalAlign=middle;spacingLeft=4;spacingRight=4;whiteSpace=wrap;overflow=hidden;rotatable=0;fontColor=#000000;" vertex="1" parent="XsbEUv3BxgWwNWDP3BoW-5">
          <mxGeometry y="30" width="160" height="30" as="geometry" />
        </mxCell>
        <mxCell id="XsbEUv3BxgWwNWDP3BoW-7" value="" style="edgeStyle=orthogonalEdgeStyle;html=1;verticalAlign=bottom;endArrow=open;endSize=8;strokeColor=#ff0000;" edge="1" source="XsbEUv3BxgWwNWDP3BoW-5" parent="1">
          <mxGeometry relative="1" as="geometry">
            <mxPoint x="-30" y="-310" as="targetPoint" />
          </mxGeometry>
        </mxCell>
        <mxCell id="XsbEUv3BxgWwNWDP3BoW-8" value="" style="rounded=0;whiteSpace=wrap;html=1;fillColor=#fff2cc;strokeColor=#d6b656;" vertex="1" parent="1">
          <mxGeometry x="-180" y="-1960" width="120" height="60" as="geometry" />
        </mxCell>
      </root>
    </mxGraphModel>
  </diagram>
</mxfile>
